<svg xmlns="http://www.w3.org/2000/svg" fill="none" viewBox="0.13 0.87 32.37 32.77"><path d="M14.3279 6.84636C14.3279 6.84636 15.4915 9.27594 16.4009 9.19591C17.5408 9.09275 17.7356 6.97485 18.7924 6.84636C19.898 6.87188 20.0109 9.06742 21.2092 9.19591C22.2829 9.16636 22.7378 6.88638 23.7613 6.84636C24.7849 6.80634 25.8759 9.19591 25.8759 9.19591" stroke="white" stroke-width="3" stroke-linecap="round"></path><path d="M13.6114 21.531C13.6114 21.531 15.3632 23.9606 16.7328 23.8806C18.4488 23.7774 18.7433 21.6595 20.3338 21.531C21.9986 21.5566 22.169 23.7521 23.9731 23.8806C25.5899 23.851 26.2748 21.5711 27.8159 21.531C29.357 21.491 31 23.8804 31 23.8804" stroke="white" stroke-width="3" stroke-linecap="round"></path><path d="M3.6012 29.7912C3.6012 29.7912 5.35298 32.2208 6.72258 32.1407C8.43861 32.0376 8.73308 29.9197 10.3236 29.7912C11.9884 29.8167 12.1588 32.0122 13.9629 32.1407C15.5797 32.1112 16.2647 29.8312 17.8057 29.7912C19.3468 29.7512 20.9898 32.1405 20.9898 32.1405" stroke="white" stroke-width="3" stroke-linecap="round"></path><path d="M21.5586 14.2539L20.7244 15.5388" stroke="#CAD1D2" stroke-width="4" stroke-linecap="round"></path><path d="M20.7244 14.2539L21.5586 15.5388" stroke="#CAD1D2" stroke-width="4" stroke-linecap="round"></path><path d="M28.3536 29.1221L27.7554 30.0436" stroke="#42A0F0" stroke-width="4" stroke-linecap="round"></path><path d="M27.7554 29.1221L28.3536 30.0436" stroke="#42A0F0" stroke-width="4" stroke-linecap="round"></path><path d="M2.73238 24.5331L2.13416 25.4546" stroke="#D0D0D0" stroke-width="4" stroke-linecap="round"></path><path d="M2.13416 24.5331L2.73238 25.4546" stroke="#D0D0D0" stroke-width="4" stroke-linecap="round"></path><path d="M27.2811 2.87323L26.6829 3.79469" stroke="#42A0F0" stroke-width="4" stroke-linecap="round"></path><path d="M26.6829 2.87323L27.2811 3.79469" stroke="#42A0F0" stroke-width="4" stroke-linecap="round"></path><path d="M3.58322 2.14266C3.815 2.14669 6.16644 7.80195 6.16644 9.99896C6.16649 11.0543 5.89437 12.0664 5.40996 12.8126C4.92554 13.5589 4.26851 13.9782 3.5834 13.9782C2.89829 13.9783 2.24122 13.5592 1.75673 12.813C1.27225 12.0669 1.00005 11.0548 1 9.99951C1 7.80158 3.35144 2.1388 3.58322 2.14266Z" fill="#42A0F0"></path><path d="M1.61365 11.4868C1.87177 11.6083 2.19981 11.1083 2.34636 10.37C2.49291 9.63163 2.40247 8.93455 2.14436 8.81299C1.88624 8.69144 1.5582 9.19145 1.41165 9.9298C1.2651 10.6681 1.35554 11.3652 1.61365 11.4868Z" fill="white"></path><path d="M8.79745 12.2384C8.96249 12.2411 10.6365 16.2671 10.6365 17.8316C10.6365 18.5829 10.4427 19.3034 10.0978 19.8346C9.75294 20.3658 9.28518 20.6643 8.79745 20.6643C8.30971 20.6643 7.84195 20.3658 7.49707 19.8346C7.15219 19.3034 6.95844 18.5829 6.95844 17.8316C6.95844 16.2671 8.6324 12.2356 8.79745 12.2384Z" fill="#42A0F0"></path><path d="M7.39531 18.8903C7.5791 18.9769 7.81266 18.6209 7.91699 18.0953C8.02133 17.5696 7.95692 17.0733 7.77314 16.9868C7.58935 16.9003 7.35579 17.2562 7.25146 17.7819C7.14713 18.3075 7.21153 18.8038 7.39531 18.8903Z" fill="white"></path></svg>