<svg width="31" height="30" viewBox="0 0 31 30" fill="none" xmlns="http://www.w3.org/2000/svg">
<path fill-rule="evenodd" clip-rule="evenodd" d="M10.1154 7.05042L10.8125 6.5625L10.1154 6.07458L10.2633 5.23667L9.42542 5.38455L8.9375 4.6875L8.44958 5.38455L7.61167 5.23667L7.75955 6.07458L7.0625 6.5625L7.75955 7.05042L7.61167 7.88832L8.44958 7.74045L8.9375 8.4375L9.42542 7.74045L10.2633 7.88833L10.1154 7.05042ZM13.0889 10.8004L13.7859 10.3125L13.0889 9.82458L13.2367 8.98667L12.3988 9.13455L11.9109 8.4375L11.423 9.13455L10.5851 8.98667L10.733 9.82458L10.0359 10.3125L10.733 10.8004L10.5851 11.6383L11.423 11.4904L11.9109 12.1875L12.3988 11.4904L13.2367 11.6383L13.0889 10.8004ZM19.4109 10.3125L18.7139 10.8004L18.8617 11.6383L18.0238 11.4904L17.5359 12.1875L17.048 11.4904L16.2101 11.6383L16.358 10.8004L15.6609 10.3125L16.358 9.82458L16.2101 8.98667L17.048 9.13455L17.5359 8.4375L18.0238 9.13455L18.8617 8.98667L18.7139 9.82458L19.4109 10.3125ZM15.7404 7.05042L16.4375 6.5625L15.7404 6.07458L15.8883 5.23667L15.0504 5.38455L14.5625 4.6875L14.0746 5.38455L13.2367 5.23667L13.3846 6.07458L12.6875 6.5625L13.3846 7.05042L13.2367 7.88832L14.0746 7.74045L14.5625 8.4375L15.0504 7.74045L15.8883 7.88833L15.7404 7.05042ZM8 10.3125L7.30295 10.8004L7.45082 11.6383L6.61292 11.4904L6.125 12.1875L5.63708 11.4904L4.79917 11.6383L4.94705 10.8004L4.25 10.3125L4.94705 9.82458L4.79917 8.98667L5.63708 9.13455L6.125 8.4375L6.61292 9.13455L7.45082 8.98667L7.30295 9.82458L8 10.3125ZM22.0786 10.5455L22.0794 10.545C22.3288 10.4042 22.6072 10.3225 22.8931 10.3062C23.1793 10.2898 23.4655 10.3394 23.7296 10.4511C23.9937 10.5628 24.2286 10.7336 24.4162 10.9504C24.6039 11.1673 24.7393 11.4243 24.812 11.7017C24.8847 11.9791 24.8928 12.2695 24.8356 12.5505C24.7785 12.8316 24.6576 13.0957 24.4823 13.3227C24.307 13.5496 24.0819 13.7333 23.8245 13.8595C23.5671 13.9857 23.2841 14.0511 22.9974 14.0507L22.9974 14.0528H4.25V15.9278H22.9948V15.928C23.5687 15.9288 24.1352 15.7979 24.6505 15.5452C24.7252 15.5085 24.7986 15.4695 24.8705 15.4281C25.2944 15.1841 25.6673 14.859 25.9673 14.4705C26.3183 14.0162 26.5603 13.4874 26.6747 12.9249C26.7891 12.3623 26.773 11.7809 26.6274 11.2256C26.4818 10.6702 26.2108 10.1557 25.8351 9.72167C25.4594 9.28763 24.9892 8.94563 24.4605 8.72203C24.0085 8.53082 23.5241 8.43055 23.0349 8.42599C22.952 8.42522 22.869 8.42719 22.786 8.43194C22.2137 8.46466 21.6565 8.62818 21.1573 8.90994L21.1555 8.91098L21.1565 8.91286L22.0786 10.5455ZM4.25 19.7366L16.6305 24.1411L16.6303 24.1415C17.0784 24.3203 17.5603 24.398 18.0418 24.3691C18.227 24.358 18.4103 24.3312 18.5899 24.2894C18.8774 24.2224 19.1554 24.1166 19.416 23.9744C19.8395 23.7434 20.2068 23.4217 20.4918 23.0324C20.7768 22.6431 20.9724 22.1957 21.0647 21.7221C21.1571 21.2485 21.1438 20.7604 21.0259 20.2925C20.9081 19.8246 20.6885 19.3885 20.3828 19.0152C20.1946 18.7854 19.9767 18.5829 19.7354 18.4128C19.5847 18.3065 19.4249 18.2128 19.2575 18.1329C18.8228 17.9255 18.3478 17.8164 17.8661 17.8134V17.8106L4.25 17.8106V19.7366ZM17.8534 19.6858L9.70166 19.6857L17.3602 22.4104L17.3595 22.4123C17.5415 22.4795 17.7356 22.5082 17.9296 22.4966C18.1358 22.4842 18.3367 22.4265 18.518 22.3276C18.6994 22.2286 18.8567 22.0909 18.9787 21.9242C19.1008 21.7575 19.1845 21.5659 19.2241 21.3631C19.2636 21.1603 19.2579 20.9512 19.2075 20.7509C19.157 20.5505 19.0629 20.3637 18.932 20.2039C18.8011 20.0441 18.6366 19.9151 18.4502 19.8261C18.264 19.7373 18.0605 19.6906 17.8543 19.6893L17.8534 19.6893L17.8534 19.6889L17.8534 19.6858Z" fill="white"/>
</svg>
