<svg width="75" height="100" xmlns="http://www.w3.org/2000/svg" fill="none" stroke="null">
 <g stroke="null">
  <title stroke="null">Layer 1</title>
  <g id="svg_5" stroke="null">
   <path d="m21.10872,0.14267c1.80571,0.0217 20.12492,30.39069 20.12492,42.18875c0.00039,5.66702 -2.1196,11.10226 -5.89346,15.1094c-3.77394,4.00767 -8.89262,6.25933 -14.23006,6.25933c-5.33744,0.00054 -10.45643,-2.25005 -14.23092,-6.25719c-3.77441,-4.0066 -5.89502,-9.44157 -5.89541,-15.10859c0,-11.803 18.31921,-42.21244 20.12492,-42.19171l0.00001,0.00001z" fill="#42A0F0" id="svg_1" stroke="null"/>
   <path d="m2.70938,50.32115c2.01092,0.65273 4.56656,-2.03235 5.70827,-5.99733c1.14172,-3.96498 0.43713,-7.70834 -1.57371,-8.36112c-2.01084,-0.65273 -4.56656,2.03235 -5.70827,5.99733c-1.14172,3.96498 -0.43713,7.70834 1.57371,8.36112z" fill="white" id="svg_2" stroke="null"/>
   <path d="m58.67573,54.35734c1.28577,0.0145 14.32705,21.63434 14.32705,30.03578c0,4.03452 -1.50951,7.90365 -4.19635,10.75622c-2.68683,2.85257 -6.33098,4.45553 -10.13071,4.45553c-3.7998,0 -7.44395,-1.60296 -10.13078,-4.45553c-2.68683,-2.85257 -4.19627,-6.7217 -4.19627,-10.75622c0,-8.40145 13.04121,-30.05082 14.32705,-30.03578l0.00001,0z" fill="#42A0F0" id="svg_3" stroke="null"/>
   <path d="m47.75217,90.0784c1.43184,0.46505 3.25142,-1.44669 4.06422,-4.26919c0.81287,-2.82304 0.31108,-5.48819 -1.12068,-5.9527c-1.43184,-0.46451 -3.25142,1.44669 -4.06422,4.26973c-0.8128,2.8225 -0.31108,5.48766 1.12068,5.95217l0,-0.00001z" fill="white" id="svg_4" stroke="null"/>
  </g>
 </g>

</svg>