<svg width="26" height="25" viewBox="0 0 26 25" fill="none" xmlns="http://www.w3.org/2000/svg">
<path fill-rule="evenodd" clip-rule="evenodd" d="M18.4688 15.7728C18.4688 17.8858 16.2709 20 13 20C9.72912 20 7.53125 17.8858 7.53125 15.7728C7.53125 13.5812 9.01609 10.8518 10.7613 8.47573C11.5502 7.40179 12.3418 6.46632 12.9609 5.77526C13.5918 6.52032 14.4104 7.53453 15.226 8.67914C16.0764 9.87256 16.9036 11.1799 17.513 12.4522C18.1337 13.7478 18.4688 14.8855 18.4688 15.7728ZM5.96875 15.7728C5.96875 11.6952 9.97752 6.77823 11.9412 4.61422C12.5782 3.91228 13 3.5 13 3.5C13 3.5 13.4041 3.92883 14.0185 4.64716C15.9671 6.92525 20.0312 12.115 20.0312 15.7728C20.0312 18.9359 16.8833 21.5 13 21.5C9.11675 21.5 5.96875 18.9359 5.96875 15.7728ZM9.48308 13.25H11.164C10.8477 13.943 10.6562 14.6001 10.6562 15.1592C10.6562 16.0176 11.531 17 13 17V18.5C10.8426 18.5 9.09375 17.0043 9.09375 15.1592C9.09375 14.5435 9.24297 13.895 9.48308 13.25Z" fill="white"/>
</svg>
