<svg xmlns="http://www.w3.org/2000/svg" fill="none" viewBox="12 12.75 35 35"><g filter="url(#filter0_di_27_312)"><path fill-rule="evenodd" clip-rule="evenodd" d="M29.5104 12.7494C30.0847 12.7494 30.5502 13.2152 30.5502 13.7899V15.2465C30.5502 15.8211 30.0847 16.2869 29.5104 16.2869C28.9361 16.2869 28.4706 15.8211 28.4706 15.2465V13.7899C28.4706 13.2152 28.9361 12.7494 29.5104 12.7494ZM29.5104 44.212C30.0847 44.212 30.5502 44.6778 30.5502 45.2524V46.709C30.5502 47.2836 30.0847 47.7494 29.5104 47.7494C28.9361 47.7494 28.4706 47.2836 28.4706 46.709V45.2524C28.4706 44.6778 28.9361 44.212 29.5104 44.212ZM13.0398 29.209C12.4655 29.209 12 29.6748 12 30.2494C12 30.824 12.4655 31.2899 13.0398 31.2899H14.5163C15.0906 31.2899 15.5561 30.824 15.5561 30.2494C15.5561 29.6748 15.0906 29.209 14.5163 29.209H13.0398ZM43.4854 30.2494C43.4854 29.6748 43.951 29.209 44.5252 29.209H45.9602C46.5345 29.209 47 29.6748 47 30.2494C47 30.824 46.5345 31.2899 45.9602 31.2899H44.5252C43.951 31.2899 43.4854 30.824 43.4854 30.2494ZM19.6396 41.5975C20.0457 41.1912 20.0457 40.5324 19.6396 40.1261C19.2335 39.7198 18.5752 39.7198 18.1691 40.1261L17.1501 41.1457C16.744 41.552 16.744 42.2108 17.1501 42.6171C17.5561 43.0234 18.2145 43.0234 18.6206 42.6171L19.6396 41.5975ZM41.8707 17.8818C42.2768 18.2881 42.2768 18.9468 41.8707 19.3531L40.8517 20.3728C40.4456 20.7791 39.7873 20.7791 39.3812 20.3728C38.9751 19.9664 38.9751 19.3077 39.3812 18.9014L40.4002 17.8818C40.8063 17.4754 41.4647 17.4754 41.8707 17.8818ZM18.6206 17.8818C18.2145 17.4754 17.5561 17.4754 17.1501 17.8818C16.744 18.2881 16.744 18.9468 17.1501 19.3531L18.1691 20.3728C18.5752 20.7791 19.2335 20.7791 19.6396 20.3728C20.0457 19.9664 20.0457 19.3077 19.6396 18.9014L18.6206 17.8818ZM39.3812 40.1261C39.7873 39.7198 40.4456 39.7198 40.8517 40.1261L41.8707 41.1457C42.2768 41.552 42.2768 42.2108 41.8707 42.6171C41.4647 43.0234 40.8063 43.0234 40.4002 42.6171L39.3812 41.5975C38.9751 41.1912 38.9751 40.5324 39.3812 40.1261ZM29.5 41.8155C35.884 41.8155 41.0592 36.6372 41.0592 30.2494C41.0592 23.8617 35.884 18.6834 29.5 18.6834C23.116 18.6834 17.9408 23.8617 17.9408 30.2494C17.9408 36.6372 23.116 41.8155 29.5 41.8155Z" fill="url(#paint0_linear_27_312)"></path></g><defs><filter id="filter0_di_27_312" x="0" y="0.749432" width="59" height="59" filterUnits="userSpaceOnUse" color-interpolation-filters="sRGB"><feFlood flood-opacity="0" result="BackgroundImageFix"></feFlood><feColorMatrix in="SourceAlpha" type="matrix" values="0 0 0 0 0 0 0 0 0 0 0 0 0 0 0 0 0 0 127 0" result="hardAlpha"></feColorMatrix><feOffset></feOffset><feGaussianBlur stdDeviation="6"></feGaussianBlur><feComposite in2="hardAlpha" operator="out"></feComposite><feColorMatrix type="matrix" values="0 0 0 0 1 0 0 0 0 0.9 0 0 0 0 0 0 0 0 0.4 0"></feColorMatrix><feBlend mode="normal" in2="BackgroundImageFix" result="effect1_dropShadow_27_312"></feBlend><feBlend mode="normal" in="SourceGraphic" in2="effect1_dropShadow_27_312" result="shape"></feBlend><feColorMatrix in="SourceAlpha" type="matrix" values="0 0 0 0 0 0 0 0 0 0 0 0 0 0 0 0 0 0 127 0" result="hardAlpha"></feColorMatrix><feOffset dy="0.6"></feOffset><feGaussianBlur stdDeviation="1.8"></feGaussianBlur><feComposite in2="hardAlpha" operator="arithmetic" k2="-1" k3="1"></feComposite><feColorMatrix type="matrix" values="0 0 0 0 1 0 0 0 0 1 0 0 0 0 1 0 0 0 1 0"></feColorMatrix><feBlend mode="normal" in2="shape" result="effect2_innerShadow_27_312"></feBlend></filter><linearGradient id="paint0_linear_27_312" x1="29.5" y1="12.7494" x2="29.5" y2="47.7494" gradientUnits="userSpaceOnUse"><stop stop-color="#FCC308"></stop><stop offset="1" stop-color="#FF627C"></stop></linearGradient></defs></svg>