<svg xmlns="http://www.w3.org/2000/svg" fill="none" viewBox="45.75 40.7 37.47 30.8">
<ellipse cx="58.009" cy="46.7887" rx="6.34676" ry="6.08712" fill="url(#paint0_radial_32_982)"/>
<g opacity="0.67" filter="url(#filter0_f_32_982)">
<path d="M71.4555 47.6071C75.7061 51.2862 85.6811 55.1876 81.8449 59.2643C78.0088 63.341 56.0823 74.9865 46.9528 70.4852C42.7022 66.806 50.761 54.9594 54.5972 50.8827C58.4333 46.806 67.2049 43.9279 71.4555 47.6071Z" fill="url(#paint1_linear_32_982)" fill-opacity="0.3"/>
</g>
<g filter="url(#filter1_ii_32_982)">
<path fill-rule="evenodd" clip-rule="evenodd" d="M64.8777 63.4956V63.496H56.2238C52.2395 63.496 49.0096 60.2661 49.0096 56.2818C49.0096 52.2976 52.2395 49.0677 56.2238 49.0677H56.9436C58.4347 49.0677 59.8296 49.479 61.0213 50.1943C62.6122 45.7909 66.8292 42.6437 71.7813 42.6437H72.7927C78.5508 42.6437 83.2186 47.3116 83.2186 53.0697C83.2186 58.8278 78.5508 63.4956 72.7927 63.4956H64.8777Z" fill="white"/>
</g>
<defs>
<filter id="filter0_f_32_982" x="0.747314" y="0.913694" width="126.959" height="115.589" filterUnits="userSpaceOnUse" color-interpolation-filters="sRGB">
<feFlood flood-opacity="0" result="BackgroundImageFix"/>
<feBlend mode="normal" in="SourceGraphic" in2="BackgroundImageFix" result="shape"/>
<feGaussianBlur stdDeviation="22.5" result="effect1_foregroundBlur_32_982"/>
</filter>
<filter id="filter1_ii_32_982" x="31.0096" y="27.6437" width="60.209" height="46.8522" filterUnits="userSpaceOnUse" color-interpolation-filters="sRGB">
<feFlood flood-opacity="0" result="BackgroundImageFix"/>
<feBlend mode="normal" in="SourceGraphic" in2="BackgroundImageFix" result="shape"/>
<feColorMatrix in="SourceAlpha" type="matrix" values="0 0 0 0 0 0 0 0 0 0 0 0 0 0 0 0 0 0 127 0" result="hardAlpha"/>
<feOffset dx="8" dy="-15"/>
<feGaussianBlur stdDeviation="15"/>
<feComposite in2="hardAlpha" operator="arithmetic" k2="-1" k3="1"/>
<feColorMatrix type="matrix" values="0 0 0 0 0 0 0 0 0 0 0 0 0 0 0 0 0 0 0.2 0"/>
<feBlend mode="normal" in2="shape" result="effect1_innerShadow_32_982"/>
<feColorMatrix in="SourceAlpha" type="matrix" values="0 0 0 0 0 0 0 0 0 0 0 0 0 0 0 0 0 0 127 0" result="hardAlpha"/>
<feOffset dx="-18" dy="11"/>
<feGaussianBlur stdDeviation="15"/>
<feComposite in2="hardAlpha" operator="arithmetic" k2="-1" k3="1"/>
<feColorMatrix type="matrix" values="0 0 0 0 1 0 0 0 0 1 0 0 0 0 1 0 0 0 1 0"/>
<feBlend mode="normal" in2="effect1_innerShadow_32_982" result="effect2_innerShadow_32_982"/>
</filter>
<radialGradient id="paint0_radial_32_982" cx="0" cy="0" r="1" gradientUnits="userSpaceOnUse" gradientTransform="translate(60.5343 43.4707) rotate(133.329) scale(12.9294 12.9722)">
<stop stop-color="#FFF72C"/>
<stop offset="1" stop-color="#DF7800"/>
</radialGradient>
<linearGradient id="paint1_linear_32_982" x1="51.467" y1="72.2878" x2="75.0134" y2="44.7354" gradientUnits="userSpaceOnUse">
<stop stop-color="#432559"/>
<stop offset="1" stop-color="#023553"/>
</linearGradient>
</defs>
</svg>