<svg width="8" height="18" viewBox="0 0 8 18" fill="none" xmlns="http://www.w3.org/2000/svg">
<path d="M4.02851 13.6645C3.77779 13.446 3.57261 12.9951 3.57261 12.6624V1.1047C3.57261 0.772153 3.3006 0.500137 2.96805 0.500137H2.19261C1.86007 0.500137 1.58805 0.772146 1.58805 1.1047L1.58792 12.6621C1.58792 12.9949 1.37457 13.4358 1.11395 13.6423C1.11395 13.6423 -6.10352e-05 14.5245 -6.10352e-05 15.3586C-6.10352e-05 16.6463 1.13312 17.6903 2.53091 17.6903C3.92847 17.6903 5.06151 16.6462 5.06151 15.3586C5.06151 14.5646 4.02851 13.6643 4.02851 13.6643L4.02851 13.6645Z" fill="white"/>
<path d="M3.32157 3.85842C3.32157 4.19097 3.04955 4.46298 2.71699 4.46298H2.45221C2.11966 4.46298 1.84764 4.19098 1.84764 3.85842L1.8475 1.36722C1.8475 1.03468 2.11952 0.762665 2.45208 0.762665H2.71686C3.04941 0.762665 3.32143 1.03467 3.32143 1.36722L3.32157 3.85842Z" fill="white"/>
<path d="M6.59206 11.1013C6.59206 11.6723 6.12961 12.1349 5.55827 12.1349C4.98694 12.1349 4.52463 11.6725 4.52463 11.1013L5.54435 9.2406L6.59206 11.1013Z" fill="white"/>
<path d="M7.70463 12.7926C7.70128 13.1241 7.43048 13.3899 7.09873 13.3867C6.76779 13.3838 6.50168 13.1128 6.50504 12.7812L7.10706 11.7071L7.70463 12.7926Z" fill="white"/>
<path d="M7.48691 10.141C7.48517 10.3385 7.32351 10.4971 7.12611 10.4951C6.92883 10.4932 6.76983 10.3317 6.77199 10.1343L7.13122 9.4938L7.48691 10.141Z" fill="white"/>
<path d="M4.00692 15.8375C3.98723 15.8372 4.00437 15.8371 4.04496 15.8371C4.085 15.8371 3.99781 16.0814 3.85076 16.3797L3.80281 16.4767C3.65603 16.775 3.31732 17.0193 3.05041 17.0193H2.56464H2.07929C1.81237 17.0193 1.47367 16.775 1.32662 16.4767L1.27867 16.3797C1.13161 16.0814 1.04483 15.8371 1.08554 15.8371C1.12653 15.8371 1.432 15.8371 1.76458 15.8374L3.43841 15.8376C3.77069 15.8376 4.02676 15.8375 4.00694 15.8375H4.00692Z" fill="white"/>
<path d="M2.34474 15.5755C1.95943 15.5533 1.73911 15.429 1.54197 15.0552C1.34482 14.681 1.36853 14.5372 1.56741 14.0997L1.5796 14.1011C2.0438 14.1842 2.17463 14.2483 2.36951 14.6197C2.56733 14.9932 2.54469 15.2457 2.3446 15.5753" fill="white"/>
<path d="M2.7963 14.51C2.62459 14.5002 2.52642 14.4448 2.43868 14.2783C2.35096 14.1119 2.3614 14.0477 2.4502 13.8529L2.45529 13.8533C2.66208 13.8904 2.72048 13.9192 2.80687 14.0844C2.89473 14.2506 2.88468 14.3632 2.79562 14.51" fill="white"/>
<path d="M3.01776 15.5755C2.84245 15.3603 2.80147 15.1826 2.90446 14.8962C3.00798 14.6098 3.09584 14.5529 3.42477 14.446L3.42946 14.4535C3.61106 14.7403 3.63985 14.841 3.53807 15.1246C3.43522 15.411 3.28977 15.521 3.01776 15.5747" fill="white"/>
</svg>
